<mxfile host="app.diagrams.net" modified="2024-07-15T01:16:50.567Z" agent="Mozilla/5.0 (Windows NT 10.0; Win64; x64) AppleWebKit/537.36 (KHTML, like Gecko) Chrome/126.0.0.0 Safari/537.36" version="24.6.5" etag="4cWr0FKTwM0Mw0frGsdo" type="github">
  <diagram name="第 1 页" id="gTUr8lVI1ReYBpJLC1r_">
    <mxGraphModel>
      <root>
        <mxCell id="0" />
        <mxCell id="1" parent="0" />
      </root>
    </mxGraphModel>
  </diagram>
</mxfile>
